<?xml version="1.0" encoding="UTF-8"?>
<svg xmlns="http://www.w3.org/2000/svg" width="1024" height="1280" viewBox="0 0 1024 1280">
  <defs>
    <linearGradient id="wall" x1="0" y1="0" x2="0" y2="1">
      <stop offset="0%" stop-color="#8d8174"/>
      <stop offset="100%" stop-color="#cbbba6"/>
    </linearGradient>
    <linearGradient id="floor" x1="0" y1="0" x2="0" y2="1">
      <stop offset="0%" stop-color="#7a5236"/>
      <stop offset="100%" stop-color="#3a2418"/>
    </linearGradient>
    <linearGradient id="deskTop" x1="0" y1="0" x2="0" y2="1">
      <stop offset="0%" stop-color="#c08958"/>
      <stop offset="100%" stop-color="#8a5530"/>
    </linearGradient>
    <linearGradient id="deskFront" x1="0" y1="0" x2="0" y2="1">
      <stop offset="0%" stop-color="#7a4a2a"/>
      <stop offset="100%" stop-color="#4e2e1a"/>
    </linearGradient>
    <radialGradient id="glow" cx="42%" cy="40%" r="55%">
      <stop offset="0%" stop-color="#ffe7b0" stop-opacity="0.85"/>
      <stop offset="45%" stop-color="#e0b56a" stop-opacity="0.22"/>
      <stop offset="100%" stop-color="#b7a894" stop-opacity="0"/>
    </radialGradient>
    <linearGradient id="shade" x1="0" y1="0" x2="0" y2="1">
      <stop offset="0%" stop-color="#fff1c8"/>
      <stop offset="100%" stop-color="#d4a45a"/>
    </linearGradient>
  </defs>

  <rect width="1024" height="1280" fill="url(#wall)"/>
  <rect x="0" y="700" width="1024" height="580" fill="url(#floor)"/>
  <rect x="0" y="688" width="1024" height="16" fill="#d8cbb8"/>
  <rect x="0" y="704" width="1024" height="5" fill="#9a8b78"/>

  <line x1="90" y1="709" x2="-20" y2="1280" stroke="#2a1810" stroke-width="3" opacity="0.22"/>
  <line x1="210" y1="709" x2="130" y2="1280" stroke="#2a1810" stroke-width="3" opacity="0.22"/>
  <line x1="330" y1="709" x2="290" y2="1280" stroke="#2a1810" stroke-width="3" opacity="0.22"/>
  <line x1="450" y1="709" x2="450" y2="1280" stroke="#2a1810" stroke-width="3" opacity="0.22"/>
  <line x1="570" y1="709" x2="610" y2="1280" stroke="#2a1810" stroke-width="3" opacity="0.22"/>
  <line x1="690" y1="709" x2="780" y2="1280" stroke="#2a1810" stroke-width="3" opacity="0.22"/>
  <line x1="810" y1="709" x2="950" y2="1280" stroke="#2a1810" stroke-width="3" opacity="0.22"/>
  <line x1="930" y1="709" x2="1120" y2="1280" stroke="#2a1810" stroke-width="3" opacity="0.22"/>

  <ellipse cx="430" cy="540" rx="430" ry="390" fill="url(#glow)"/>

  <ellipse cx="512" cy="990" rx="300" ry="36" fill="#1a100c" opacity="0.35"/>

  <rect x="268" y="822" width="26" height="168" fill="#5a341e"/>
  <rect x="730" y="822" width="26" height="168" fill="#4a2a16"/>

  <polygon points="206,820 818,820 794,708 230,708" fill="url(#deskFront)"/>
  <rect x="430" y="748" width="164" height="46" fill="#6a3e24"/>
  <circle cx="512" cy="771" r="5" fill="#c4a06a"/>

  <polygon points="198,686 826,686 794,708 230,708" fill="url(#deskTop)"/>

  <g transform="translate(478,650) rotate(-7)">
    <rect width="128" height="82" fill="#f4ead4"/>
    <rect x="10" y="14" width="100" height="3" fill="#d7c9ae"/>
    <rect x="10" y="24" width="88" height="3" fill="#d7c9ae"/>
    <rect x="10" y="34" width="94" height="3" fill="#d7c9ae"/>
    <rect x="10" y="44" width="70" height="3" fill="#d7c9ae"/>
  </g>
  <g transform="translate(520,660) rotate(5)">
    <rect width="112" height="74" fill="#efe4cc"/>
    <rect x="10" y="16" width="86" height="3" fill="#d2c4a8"/>
    <rect x="10" y="26" width="74" height="3" fill="#d2c4a8"/>
    <rect x="10" y="36" width="80" height="3" fill="#d2c4a8"/>
  </g>

  <ellipse cx="388" cy="678" rx="108" ry="28" fill="#ffe7b0" opacity="0.35"/>
  <ellipse cx="388" cy="686" rx="40" ry="8" fill="#4a2e1a"/>
  <rect x="380" y="608" width="16" height="78" fill="#6e4a2c"/>
  <polygon points="336,526 440,526 426,608 350,608" fill="url(#shade)"/>
  <polygon points="346,526 430,526 422,540 354,540" fill="#fff1c8"/>
  <ellipse cx="388" cy="600" rx="16" ry="7" fill="#fff6d8"/>

  <ellipse cx="560" cy="1092" rx="118" ry="24" fill="#1a100c" opacity="0.30"/>
  <rect x="508" y="820" width="16" height="168" fill="#6a4024"/>
  <rect x="596" y="820" width="16" height="168" fill="#5a341c"/>
  <rect x="516" y="838" width="88" height="11" fill="#8a5533"/>
  <rect x="518" y="868" width="84" height="10" fill="#7a4a28"/>
  <rect x="518" y="898" width="84" height="10" fill="#7a4a28"/>
  <polygon points="490,980 630,980 642,1008 478,1008" fill="#9a6238"/>
  <rect x="488" y="1008" width="15" height="90" fill="#4a2a16"/>
  <rect x="616" y="1008" width="15" height="90" fill="#3d2212"/>
</svg>
